<svg width="512" height="512" viewBox="0 0 512 512" fill="none" xmlns="http://www.w3.org/2000/svg">
<g id="Type=Outline" clip-path="url(#clip0_335_259)">
<g id="Union">
<path d="M173.805 404.153C181.364 417.555 188.24 428.894 204.734 428.894C220.544 428.894 230.512 422.71 230.512 398.654V235.058H278.627V399.334C278.627 449.169 249.415 471.852 206.797 471.852C168.307 471.852 145.964 451.917 134.623 427.861L173.805 404.153Z" fill="#F7DF1E"/>
<path d="M391.369 429.24C367.656 429.24 354.252 416.868 343.939 400.026L304.763 422.709C318.852 450.549 347.722 471.856 392.401 471.856C438.11 471.856 472.135 448.144 472.135 404.837C472.135 364.627 449.107 346.757 408.208 329.228L396.18 324.073C375.561 315.137 366.625 309.293 366.625 294.858C366.625 283.174 375.561 274.239 389.652 274.239C403.399 274.239 412.332 280.08 420.581 294.858L458.043 270.801C442.236 242.962 420.24 232.307 389.652 232.307C346.689 232.307 319.195 259.803 319.195 295.89C319.195 335.071 342.222 353.63 376.937 368.405L388.962 373.564C410.959 383.184 424.018 389.027 424.018 405.524C424.018 419.272 411.305 429.24 391.369 429.24Z" fill="#F7DF1E"/>
<path fill-rule="evenodd" clip-rule="evenodd" d="M0 0V512H512V0H0ZM503.808 8.192H8.192V503.808H503.808V8.192Z" fill="#F7DF1E"/>
</g>
</g>
<defs>
<clipPath id="clip0_335_259">
<rect width="512" height="512" fill="white"/>
</clipPath>
</defs>
</svg>
